<?xml version="1.0" encoding="utf-8"?>
<!-- Generator: Adobe Illustrator 23.1.0, SVG Export Plug-In . SVG Version: 6.00 Build 0)  -->
<svg version="1.1" id="图层_1" xmlns="http://www.w3.org/2000/svg" xmlns:xlink="http://www.w3.org/1999/xlink" x="0px" y="0px"
     width="120px" height="180px" viewBox="0 0 120 180" enable-background="new 0 0 450 180" xml:space="preserve">
<polygon fill="#43B07E" points="103.37,112.2 62.54,88.62 62.54,41.47 56.62,41.47 56.62,88.62 15.79,112.2 18.75,117.32
	59.58,93.75 100.42,117.32 "/>
    <g>
	<g>
		<path fill="#34485C" d="M59.58,140.42c-2.44,0-4.87-0.63-7.05-1.88l-31.18-18c-4.35-2.51-7.05-7.19-7.05-12.21v-36
			c0-5.02,2.7-9.69,7.05-12.21l31.18-18c4.35-2.51,9.75-2.51,14.09,0l31.18,18c4.35,2.51,7.05,7.19,7.05,12.21v36
			c0,5.02-2.7,9.69-7.05,12.21l-31.18,18C64.45,139.79,62.02,140.42,59.58,140.42z M59.58,46.15c-1.41,0-2.83,0.36-4.09,1.09
			l-31.18,18c-2.52,1.45-4.09,4.17-4.09,7.08v36c0,2.91,1.57,5.62,4.09,7.08l31.18,18c2.52,1.46,5.65,1.46,8.17,0l31.18-18
			c2.52-1.45,4.09-4.17,4.09-7.08v-36c0-2.91-1.57-5.62-4.09-7.08l-31.18-18C62.41,46.52,60.99,46.15,59.58,46.15z"/>
	</g>
</g>
</svg>
