<?xml version="1.0" encoding="utf-8"?>
<!-- Generator: Adobe Illustrator 23.1.0, SVG Export Plug-In . SVG Version: 6.00 Build 0)  -->
<svg version="1.1" id="图层_1" xmlns="http://www.w3.org/2000/svg" xmlns:xlink="http://www.w3.org/1999/xlink" x="0px" y="0px"
	 width="120px" height="180px" viewBox="0 0 120 180" enable-background="new 0 0 450 180" xml:space="preserve">
<polygon fill="#43B07E" points="103.37,112.2 62.54,88.62 62.54,41.47 56.62,41.47 56.62,88.62 15.79,112.2 18.75,117.32
	59.58,93.75 100.42,117.32 "/>
<g>
	<g>
		<path fill="#FFFFFF" d="M59.58,140.42c-2.44,0-4.87-0.63-7.05-1.88l-31.18-18c-4.35-2.51-7.05-7.19-7.05-12.21v-36
			c0-5.02,2.7-9.69,7.05-12.21l31.18-18c4.35-2.51,9.75-2.51,14.09,0l31.18,18c4.35,2.51,7.05,7.19,7.05,12.21v36
			c0,5.02-2.7,9.69-7.05,12.21l-31.18,18C64.45,139.79,62.02,140.42,59.58,140.42z M59.58,46.15c-1.41,0-2.83,0.36-4.09,1.09
			l-31.18,18c-2.52,1.45-4.09,4.17-4.09,7.08v36c0,2.91,1.57,5.62,4.09,7.08l31.18,18c2.52,1.46,5.65,1.46,8.17,0l31.18-18
			c2.52-1.45,4.09-4.17,4.09-7.08v-36c0-2.91-1.57-5.62-4.09-7.08l-31.18-18C62.41,46.52,60.99,46.15,59.58,46.15z"/>
	</g>
</g>
<path fill="#FFFFFF" d="M110.28,50.39L68.82,26.46c-5.7-3.29-12.78-3.29-18.47,0L8.89,50.39c-5.7,3.29-9.24,9.42-9.24,16v47.87
	c0,6.58,3.54,12.71,9.24,16l41.46,23.94c2.85,1.64,6.04,2.47,9.24,2.47s6.39-0.82,9.24-2.47l41.46-23.94c5.7-3.29,9.24-9.42,9.24-16
	V66.39C119.51,59.82,115.97,53.68,110.28,50.39z M113.59,114.26c0,4.47-2.41,8.64-6.28,10.87l-41.46,23.94
	c-1.05,0.61-2.17,1.03-3.32,1.31v-11.2h-5.92v11.2c-1.15-0.28-2.27-0.7-3.32-1.31l-41.46-23.94c-3.87-2.24-6.28-6.4-6.28-10.87
	V66.39c0-1.21,0.19-2.39,0.52-3.53l9.69,5.6l2.96-5.13l-9.69-5.6c0.81-0.86,1.74-1.61,2.79-2.22L53.3,31.58
	c1.94-1.12,4.11-1.68,6.28-1.68c2.17,0,4.34,0.56,6.28,1.68l41.46,23.93c1.05,0.61,1.98,1.36,2.79,2.22l-9.69,5.6l2.96,5.13
	l9.69-5.6c0.33,1.13,0.52,2.32,0.52,3.53V114.26z"/>
</svg>
